<?xml version="1.0" encoding="utf-8"?>
<!-- Generator: Adobe Illustrator 22.0.1, SVG Export Plug-In . SVG Version: 6.00 Build 0)  -->
<svg version="1.1" id="Layer_1" xmlns="http://www.w3.org/2000/svg" xmlns:xlink="http://www.w3.org/1999/xlink" x="0px" y="0px"
	 viewBox="0 0 479 479" style="enable-background:new 0 0 479 479;" xml:space="preserve">
<style type="text/css">
	.st0{fill:#E63375;}
</style>
<g>
	<path class="st0" d="M239.5,43c52.5,0,101.8,20.4,138.9,57.6S436,187,436,239.5s-20.4,101.8-57.6,138.9S292,436,239.5,436
		s-101.8-20.4-138.9-57.6S43,292,43,239.5s20.4-101.8,57.6-138.9S187,43,239.5,43 M239.5,0C107.2,0,0,107.2,0,239.5
		S107.2,479,239.5,479S479,371.8,479,239.5S371.8,0,239.5,0L239.5,0z"/>
</g>
<g>
	<path class="st0" d="M191.7,330.3c-6.5,0-13.6-5.2-13.6-13.6V157.6c0-8.4,7-13.6,13.6-13.6c2.3,0,4.6,0.6,6.7,1.9l137.8,79.6
		c6.1,3.5,6.8,9.3,6.8,11.7s-0.7,8.2-6.8,11.7l-137.8,79.6C196.3,329.7,194,330.3,191.7,330.3z"/>
	<path class="st0" d="M199.7,171.5l113.8,65.7l-113.8,65.7V171.5 M191.7,122.6c-18.3,0-35.1,14.6-35.1,35.1v159.2
		c0,20.4,16.8,35.1,35.1,35.1c5.8,0,11.8-1.5,17.4-4.7L347,267.5c23.3-13.5,23.3-47.2,0-60.6l-137.8-79.6
		C203.5,124.1,197.5,122.6,191.7,122.6L191.7,122.6z"/>
</g>
</svg>
