<?xml version="1.0" encoding="utf-8"?>
<!-- Generator: Adobe Illustrator 22.0.1, SVG Export Plug-In . SVG Version: 6.00 Build 0)  -->
<svg version="1.1" id="Layer_1" xmlns="http://www.w3.org/2000/svg" xmlns:xlink="http://www.w3.org/1999/xlink" x="0px" y="0px"
	 viewBox="0 0 479 479" style="enable-background:new 0 0 479 479;" xml:space="preserve">
<style type="text/css">
	.st0{fill:#97224D;}
</style>
<g>
	<path class="st0" d="M239.5,43c52.5,0,101.8,20.4,138.9,57.6S436,187,436,239.5s-20.4,101.8-57.6,138.9S292,436,239.5,436
		s-101.8-20.4-138.9-57.6S43,292,43,239.5s20.4-101.8,57.6-138.9S187,43,239.5,43 M239.5,0C107.2,0,0,107.2,0,239.5
		S107.2,479,239.5,479S479,371.8,479,239.5S371.8,0,239.5,0L239.5,0z"/>
</g>
<path class="st0" d="M340.5,233.4l-157.1-90.7c-4.7-2.7-10.6,0.7-10.6,6.1v181.4c0,5.5,5.9,8.9,10.6,6.1l157.1-90.7
	C345.3,242.9,345.3,236.1,340.5,233.4z"/>
</svg>
