<svg id="Layer_1" data-name="Layer 1" xmlns="http://www.w3.org/2000/svg" viewBox="0 0 602.7 438"><defs><style>.cls-1,.cls-2{fill:none;stroke:#c4c4c4;stroke-linecap:round;stroke-width:10px;}.cls-1{stroke-linejoin:round;}.cls-2{stroke-miterlimit:10;stroke-dasharray:0;}</style></defs><title>20181102 502</title><path class="cls-1" d="M234.7,388l-27.64,39.54c-2.07,2.95-1.27,5.46,1.85,5.46H393.79c3.12,0,3.92-2.51,1.84-5.46l-27.7-39.44a10,10,0,0,1,8.19-15.78H582.26a15.48,15.48,0,0,0,15.44-15.43V20.43A15.49,15.49,0,0,0,582.26,5H20.43A15.48,15.48,0,0,0,5,20.43V356.89a15.48,15.48,0,0,0,15.43,15.43H203.8"/><line class="cls-1" x1="97" y1="107.98" x2="203.2" y2="214.17"/><line class="cls-1" x1="97" y1="214.17" x2="203.2" y2="107.98"/><line class="cls-1" x1="399.5" y1="107.98" x2="505.7" y2="214.17"/><line class="cls-1" x1="399.5" y1="214.17" x2="505.7" y2="107.98"/><path class="cls-1" d="M279.41,285c0-12.69,10.5-22.82,22.51-22.52,11.21.28,20.8,9.57,21.37,21.37"/><line class="cls-2" x1="190.7" y1="372.32" x2="323.7" y2="372.32"/></svg>